<svg width="31" height="10" viewBox="0 0 31 10" fill="none" xmlns="http://www.w3.org/2000/svg">
<path fill-rule="evenodd" clip-rule="evenodd" d="M4.22617 8L1.67164 1.41H1.66169V8H0V0.78C0 0.5 0.0729685 0.3 0.218905 0.18C0.364842 0.06 0.527363 0 0.706468 0H1.74129C1.95357 0 2.1393 0.02 2.29851 0.06C2.45771 0.1 2.59701 0.163333 2.71642 0.25C2.83582 0.336667 2.93532 0.446667 3.01493 0.58C3.09453 0.713333 3.16418 0.87 3.22388 1.05L5.99153 8H4.22617ZM8.01044 8H9.64802L12.3184 1.41H12.3383V8H14V0.78C14 0.64 13.9801 0.523333 13.9403 0.43C13.9005 0.33 13.8474 0.25 13.7811 0.19C13.7214 0.123333 13.6451 0.0766667 13.5522 0.05C13.466 0.0166667 13.3731 0 13.2736 0H12.1891C12.0232 0 11.8773 0.02 11.7512 0.06C11.6252 0.0933333 11.5091 0.153333 11.403 0.24C11.3035 0.32 11.2106 0.43 11.1244 0.57C11.0381 0.71 10.9585 0.88 10.8856 1.08L8.01044 8Z" fill="#0F396A"/>
<line x1="0.5" y1="9.5" x2="30.5" y2="9.5" stroke="#0F396A" stroke-linecap="round"/>
<path fill-rule="evenodd" clip-rule="evenodd" d="M14.6371 8H16.2748L18.4106 1.77182H18.4205L20.5851 8H22.3681L19.6349 0.3683C19.6086 0.295304 19.5724 0.235579 19.5263 0.189127C19.4802 0.136039 19.4144 0.0962226 19.3288 0.0696784C19.2433 0.0431342 19.1314 0.0265442 18.9931 0.0199081C18.8549 0.00663604 18.6805 0 18.4698 0C18.2724 0 18.1078 0.00663604 17.9762 0.0199081C17.8511 0.0265442 17.7458 0.0431342 17.6602 0.0696784C17.5812 0.0962226 17.5187 0.132721 17.4726 0.179173C17.4331 0.225625 17.4002 0.28535 17.3739 0.358346L14.6371 8Z" fill="#0F396A"/>
<path fill-rule="evenodd" clip-rule="evenodd" d="M28.4586 8L25.3372 0.937213C25.2541 0.735069 25.1986 0.574273 25.1709 0.454824C25.1501 0.326187 25.1675 0.229709 25.2229 0.165391C25.2783 0.0918836 25.3753 0.0459418 25.5139 0.0275651C25.6525 0.00918836 25.843 0 26.0855 0C26.2934 0 26.4631 0.00918836 26.5947 0.0275651C26.7264 0.0367534 26.8303 0.0597243 26.9065 0.0964778C26.9827 0.124043 27.0382 0.169985 27.0728 0.234303C27.1075 0.289433 27.1456 0.353752 27.1871 0.427259L30.0764 7.09801L30.0822 7.08445L30.54 8H28.4586Z" fill="#0F396A"/>
<path fill-rule="evenodd" clip-rule="evenodd" d="M24.4586 8L21.3372 0.937213C21.2541 0.735069 21.1986 0.574273 21.1709 0.454824C21.1501 0.326187 21.1675 0.229709 21.2229 0.165391C21.2783 0.0918836 21.3753 0.0459418 21.5139 0.0275651C21.6525 0.00918836 21.843 0 22.0855 0C22.2934 0 22.4631 0.00918836 22.5947 0.0275651C22.7264 0.0367534 22.8303 0.0597243 22.9065 0.0964778C22.9827 0.124043 23.0382 0.169985 23.0728 0.234303C23.1075 0.289433 23.1456 0.353752 23.1871 0.427259L26.0764 7.09801L26.0822 7.08445L26.54 8H24.4586Z" fill="#0F396A"/>
</svg>
